<?xml version="1.0" encoding="utf-8"?>
<!-- Generator: Adobe Illustrator 22.0.1, SVG Export Plug-In . SVG Version: 6.00 Build 0)  -->
<svg version="1.1" id="Слой_1" xmlns="http://www.w3.org/2000/svg" xmlns:xlink="http://www.w3.org/1999/xlink" x="0px" y="0px"
	 viewBox="0 0 377.5 161.4" style="enable-background:new 0 0 377.5 161.4;" xml:space="preserve">
<style type="text/css">
	.st0{opacity:0.82;fill:#FFAEFF;}
	.st1{fill:#9FD1CC;}
</style>
<path class="st0" d="M0.1,160.1c0,0,37.4-80.3,85.2-74.5c47.8,5.7,56.8,73.1,84,74.5c27.2,1.4,46.3-106.1,84.6-91.7
	s68.5,90.3,97.6,91.7s26.1,0,26.1,0V-0.4H0.1V160.1z"/>
<path class="st1" d="M0.1,44.5c0,0,37.4-22.5,85.2-20.9s56.8,20.5,84,20.9s46.3-29.7,84.6-25.7s68.5,25.3,97.6,25.7
	c29.2,0.4,26.1,0,26.1,0V-0.4H0.1V44.5z"/>
</svg>
