<?xml version="1.0" encoding="utf-8"?>
<!-- Generator: Adobe Illustrator 22.0.1, SVG Export Plug-In . SVG Version: 6.00 Build 0)  -->
<svg version="1.1" id="Слой_1" xmlns="http://www.w3.org/2000/svg" xmlns:xlink="http://www.w3.org/1999/xlink" x="0px" y="0px"
	 viewBox="0 0 215.7 1005.4" style="enable-background:new 0 0 215.7 1005.4;" xml:space="preserve">
<style type="text/css">
	.st0{opacity:0.82;fill:#FFAEFF;}
	.st1{opacity:0.4;fill:#E591E8;}
	.st2{fill:#9FD1CC;}
</style>
<path class="st0" d="M0.8,1005c0,0,106.8-99.6,99.1-226.8S2.7,627,0.8,554.7c-1.9-72.3,141.1-123.3,122-225.1S2.6,147.4,0.7,69.7
	s0-69.4,0-69.4l213.6,0l0.1,1004.7L0.8,1005z"/>
<path class="st0" d="M35.1,1005c0,0,90.5-99.6,84-226.7c-6.5-127.1-82.4-151.3-84-223.6s119.6-123.2,103.4-225.1
	C122.4,227.8,36.7,147.4,35.1,69.7s0-69.4,0-69.4l181,0l0,1004.7L35.1,1005z"/>
<path class="st1" d="M94.7,1005c0,0,60.4-99.6,56.1-226.7S95.8,627,94.7,554.6c-1.1-72.3,79.8-123.2,69-225.1s-68-182.2-69-259.9
	c-1.1-77.7,0-69.4,0-69.4l120.8,0l0,1004.7L94.7,1005z"/>
<path class="st2" d="M165.5,1005c0,0,25.3-99.6,23.5-226.7c-1.8-127.1-23.1-151.3-23.5-223.6s33.5-123.2,29-225.1
	c-4.5-101.8-28.5-182.2-28.9-259.9s0-69.4,0-69.4l50.7,0l0,1004.7L165.5,1005z"/>
</svg>
