<?xml version="1.0" encoding="utf-8"?>
<!-- Generator: Adobe Illustrator 22.0.1, SVG Export Plug-In . SVG Version: 6.00 Build 0)  -->
<svg version="1.1" id="Слой_1" xmlns="http://www.w3.org/2000/svg" xmlns:xlink="http://www.w3.org/1999/xlink" x="0px" y="0px"
	 viewBox="0 0 771.4 199.2" style="enable-background:new 0 0 771.4 199.2;" xml:space="preserve">
<style type="text/css">
	.st0{opacity:0.82;fill:#FFAEFF;}
	.st1{opacity:0.4;fill:#E591E8;}
	.st2{fill:#9FD1CC;}
</style>
<path class="st0" d="M771.3,6.1c0,0-76.4,96-174,89.2C499.8,88.3,481.3,7.7,425.8,6s-94.6,126.9-172.7,109.8S113.4,7.6,53.8,5.9
	s-53.3,0-53.3,0l0,192.1l770.8,0.1L771.3,6.1z"/>
<path class="st0" d="M771.3,36.9c0,0-76.4,81.4-173.9,75.6s-116-74.1-171.5-75.6c-55.5-1.5-94.5,107.6-172.7,93
	c-78.1-14.5-139.8-91.6-199.4-93c-59.6-1.4-53.3,0-53.3,0v162.8h770.8V36.9z"/>
<path class="st1" d="M771.3,90.5c0,0-76.4,54.3-173.9,50.5s-116-49.5-171.5-50.5c-55.5-1-94.5,71.8-172.7,62.1
	c-78.1-9.7-139.8-61.1-199.4-62.1c-59.6-1-53.3,0-53.3,0v108.7h770.8V90.5z"/>
<path class="st2" d="M771.3,154.1c0,0-76.4,22.8-173.9,21.2c-97.5-1.6-116-20.7-171.5-21.2s-94.5,30.1-172.6,26
	c-78.1-4.1-139.7-25.6-199.3-26c-59.6-0.4-53.2,0-53.2,0v45.6h770.5V154.1z"/>
</svg>
