<?xml version="1.0" encoding="utf-8"?>
<!-- Generator: Adobe Illustrator 22.0.1, SVG Export Plug-In . SVG Version: 6.00 Build 0)  -->
<svg version="1.1" id="Слой_1" xmlns="http://www.w3.org/2000/svg" xmlns:xlink="http://www.w3.org/1999/xlink" x="0px" y="0px"
	 viewBox="0 0 36.7 36.7" style="enable-background:new 0 0 36.7 36.7;" xml:space="preserve">
<style type="text/css">
	.st0{opacity:0.82;fill:#5BA8A6;}
	.st1{fill:#FFFFFF;}
</style>
<g>
	<path class="st1" d="M18.4,10.2c3.1,0,6.3,0,9.4,0c0.5,0,0.9,0.1,1.3,0.4c0.5,0.4,0.8,0.9,0.8,1.6c0,3.8,0,7.6,0,11.4
		c0,0.4,0,0.7,0,1.1c-0.1,0.8-0.6,1.3-1.3,1.5c-0.1,0.1-0.3,0.1-0.4,0.1c-1.9,0-3.7,0-5.6,0c-4.4,0-8.7,0-13.1,0c-0.3,0-0.6,0-1,0
		c-0.3,0-0.5-0.1-0.7-0.2C7.3,25.5,7,25,7,24.3c0-1.5,0-2.9,0-4.4c0-2.4,0-4.8,0-7.2c0-0.3,0-0.7,0-1c0.1-0.8,0.9-1.5,1.7-1.5
		c1.9,0,3.8,0,5.6,0C15.7,10.2,17,10.2,18.4,10.2C18.4,10.2,18.4,10.2,18.4,10.2z M9.4,11.6C9.3,11.6,9.3,11.6,9.4,11.6
		c0,0.1,0.1,0.1,0.1,0.1c0.3,0.2,0.5,0.5,0.8,0.7c2.2,2,4.4,4,6.6,6c0.3,0.3,0.6,0.5,1,0.8c0.3,0.3,0.7,0.2,1.1,0
		c0.2-0.1,0.3-0.2,0.4-0.3c0.4-0.3,0.7-0.6,1.1-1c2.3-2.1,4.6-4.2,6.9-6.3c0,0,0.1-0.1,0.1-0.1c0,0,0,0,0-0.1
		C21.4,11.6,15.4,11.6,9.4,11.6z M15.4,19.3c-2,1.8-4,3.6-5.9,5.4c0,0,0,0,0,0.1c6,0,12,0,18.1,0c-2-1.8-4-3.6-6-5.4
		c-0.2,0.2-0.4,0.4-0.6,0.5c-0.3,0.3-0.7,0.5-1,0.8c-0.5,0.3-1.2,0.4-1.8,0.3c-0.4,0-0.7-0.1-1-0.2c-0.5-0.2-0.8-0.6-1.2-0.9
		C15.7,19.6,15.5,19.5,15.4,19.3z M22.6,18.2c2,1.9,4,3.7,5.9,5.5c0-3.6,0-7.2,0-10.8c0,0,0,0,0,0C26.5,14.7,24.5,16.4,22.6,18.2z
		 M14.3,18.2c-2-1.8-3.9-3.5-5.9-5.3c0,0,0,0-0.1,0c0,3.6,0,7.1,0,10.7c0,0,0,0,0.1,0C10.4,21.9,12.3,20.1,14.3,18.2z"/>
</g>
</svg>
