<?xml version="1.0" encoding="utf-8"?>
<!-- Generator: Adobe Illustrator 22.0.1, SVG Export Plug-In . SVG Version: 6.00 Build 0)  -->
<svg version="1.1" id="Слой_1" xmlns="http://www.w3.org/2000/svg" xmlns:xlink="http://www.w3.org/1999/xlink" x="0px" y="0px"
	 viewBox="0 0 50.2 49.6" style="enable-background:new 0 0 50.2 49.6;" xml:space="preserve">
<style type="text/css">
	.st0{opacity:0.82;fill:#5BA8A6;}
	.st1{fill:#FFFFFF;}
</style>
<path class="st1" d="M47.2,23.7c0.1,12.2-8.6,21.9-20.2,22.8c-12.4,1-22.8-8.4-23.6-20.3C2.5,13.9,11.8,3.6,23.7,2.7
	C30,2.3,35.5,4.2,40.2,8.5C44.9,12.8,47.1,18.3,47.2,23.7z M20.4,40.8c2.2,0,4.3,0,6.5,0c0-0.1,0-0.1,0-0.2c0-4.9,0-9.8,0-14.7
	c0-0.1,0-0.2,0.2-0.2c1.7,0,3.5,0,5.2,0c0.1,0,0.1,0,0.2,0c0.3-1.7,0.6-3.3,0.8-5c-0.1,0-0.1,0-0.2,0c-0.4,0-0.8,0-1.2,0
	c-1.6,0-3.2,0-4.9,0c-0.1,0-0.2,0-0.2-0.2c0-1,0-2.1,0-3.1c0-0.2,0-0.3,0-0.5c0.1-0.6,0.5-0.9,1.1-1c0.2,0,0.3,0,0.5,0
	c1.5,0,3,0,4.6,0c0,0,0.1,0,0.1,0c0-1.8,0-3.6,0-5.4c-0.1,0-0.1,0-0.2,0c-2.4,0-4.8,0-7.2,0c-0.1,0-0.3,0-0.4,0
	c-1.4,0.1-2.6,0.6-3.6,1.7c-1,1.2-1.5,2.7-1.6,4.3c0,1.3,0,2.6,0,3.9c0,0.1,0,0.1,0,0.2c-0.3,0-0.7,0-1,0c-0.7,0-1.3,0-2,0
	c-0.1,0-0.2,0-0.2,0.1c0,1.5,0,3.1,0,4.6c0,0.1,0,0.2,0.2,0.2c0.9,0,1.9,0,2.8,0c0.1,0,0.1,0,0.2,0C20.4,30.7,20.4,35.7,20.4,40.8z"
	/>
</svg>
