<?xml version="1.0" encoding="utf-8"?>
<!-- Generator: Adobe Illustrator 22.0.1, SVG Export Plug-In . SVG Version: 6.00 Build 0)  -->
<svg version="1.1" id="Слой_1" xmlns="http://www.w3.org/2000/svg" xmlns:xlink="http://www.w3.org/1999/xlink" x="0px" y="0px"
	 viewBox="0 0 45.8 45.1" style="enable-background:new 0 0 45.8 45.1;" xml:space="preserve">
<style type="text/css">
	.st0{opacity:0.82;fill:#5BA8A6;}
	.st1{fill:#FFFFFF;}
</style>
<path class="st1" d="M23.1,35.1c-0.4-0.5-0.9-1-1.3-1.5c-1.9-2.3-3.7-4.7-5.2-7.3c-1-1.7-1.9-3.5-2.5-5.4c-0.3-1.1-0.6-2.2-0.5-3.3
	c0-4,2.5-7.5,6.3-8.8c5.4-1.9,11.3,1.4,12.5,6.9c0.4,1.7,0.2,3.4-0.3,5c-0.5,1.8-1.3,3.5-2.2,5.1c-1.5,2.7-3.3,5.2-5.2,7.5
	c-0.5,0.6-1,1.2-1.5,1.7C23.2,35,23.2,35.1,23.1,35.1z M23.2,20.9c1.9-0.1,3.4-1.6,3.3-3.5c-0.1-1.9-1.6-3.3-3.5-3.2
	c-1.9,0.1-3.3,1.7-3.3,3.5C19.8,19.6,21.4,21,23.2,20.9z"/>
</svg>
