<?xml version="1.0" encoding="utf-8"?>
<!-- Generator: Adobe Illustrator 22.0.1, SVG Export Plug-In . SVG Version: 6.00 Build 0)  -->
<svg version="1.1" id="Слой_1" xmlns="http://www.w3.org/2000/svg" xmlns:xlink="http://www.w3.org/1999/xlink" x="0px" y="0px"
	 viewBox="0 0 51 51" style="enable-background:new 0 0 51 51;" xml:space="preserve">
<style type="text/css">
	.st0{opacity:0.82;fill:#5BA8A6;}
	.st1{fill:#FFFFFF;}
</style>
<path class="st1" d="M25.7,6.1c4,0,7.9,0,11.9,0c3.4,0,6.3,2.2,7.2,5.4c0.2,0.7,0.3,1.3,0.3,2c0,8,0,15.9,0,23.9
	c0,3.6-2.6,6.7-6.1,7.3c-0.4,0.1-0.9,0.1-1.4,0.1c-8,0-15.9,0-23.9,0c-3.5,0-6.7-2.5-7.3-6.2c-0.1-0.4-0.1-0.9-0.1-1.3
	c0-8,0-15.9,0-23.9c0-3.6,2.6-6.7,6.1-7.3c0.5-0.1,1-0.1,1.5-0.1C17.8,6.1,21.7,6.1,25.7,6.1z M10,21.5c0,0.1,0,0.2,0,0.3
	c0,5.1,0,10.2,0,15.4c0,0.2,0,0.5,0,0.7c0.2,1.8,1.8,3.2,3.6,3.2c8,0,16,0,24,0c0.2,0,0.5,0,0.7-0.1c1.7-0.4,2.9-1.9,2.9-3.7
	c0-3.3,0-6.7,0-10c0-1.8,0-3.7,0-5.5c0-0.1,0-0.2,0-0.3c-0.1,0-0.1,0-0.1,0c-1.8,0-3.7,0-5.5,0c0,0-0.1,0-0.1,0c0,0,0,0,0,0
	c0,0,0,0,0,0c0.8,2.2,1,4.4,0.4,6.7c-0.6,2.3-1.9,4.1-3.7,5.6C29,36.4,24.6,36.8,21,35c-1.8-0.9-3.3-2.2-4.3-4c-1.8-3-2-6.2-0.8-9.5
	C13.9,21.5,12,21.5,10,21.5z M25.7,32.3c3.7,0,6.8-3,6.8-6.8c0-3.8-3.1-6.9-6.8-6.9c-3.8,0-6.8,3.1-6.8,6.8
	C18.8,29.3,22,32.3,25.7,32.3z M40.6,10.6c-0.5-0.1-6.4,0-6.6,0c-0.1,0.5,0,6.3,0,6.5c0.5,0.1,6.3,0,6.5,0
	C40.6,14.9,40.6,12.7,40.6,10.6z"/>
</svg>
