<?xml version="1.0" encoding="utf-8"?>
<!-- Generator: Adobe Illustrator 22.0.1, SVG Export Plug-In . SVG Version: 6.00 Build 0)  -->
<svg version="1.1" id="Слой_1" xmlns="http://www.w3.org/2000/svg" xmlns:xlink="http://www.w3.org/1999/xlink" x="0px" y="0px"
	 viewBox="0 0 31.9 30.3" style="enable-background:new 0 0 31.9 30.3;" xml:space="preserve">
<style type="text/css">
	.st0{fill:#FFFFFF;}
</style>
<path class="st0" d="M31.3,11.7c-0.1,0.6-0.5,1.1-0.9,1.5c-3,3-5.9,5.9-8.9,8.9c-0.2,0.2-0.5,0.4-0.7,0.6c-0.6,0.3-1.1,0.1-1.3-0.5
	c-0.1-0.2-0.1-0.5-0.1-0.7c0-1.8,0-3.6,0-5.4c0-0.1,0-0.1,0-0.2c-0.1,0-0.1,0-0.1,0c-2.2,0-4.4,0.1-6.6,0.8c-2.1,0.6-4,1.6-5.6,3.1
	c-1.5,1.5-2.3,3.3-2.7,5.4c-0.2,1.1-0.1,2.2,0.2,3.3c0.1,0.2,0.1,0.4,0.2,0.6c0,0.1,0.1,0.2,0.1,0.3c0,0.3,0,0.5-0.3,0.7
	c-0.2,0.1-0.6,0.1-0.8-0.1c-0.2-0.2-0.4-0.4-0.5-0.6C2,26.8,1.2,24,1.3,21.1c0.1-3.4,1.3-6.3,3.5-8.9C6.3,10.7,8,9.5,9.9,8.6
	c1.7-0.7,3.4-1.2,5.3-1.5c1.3-0.2,2.6-0.2,4-0.2c0.1,0,0.1,0,0.2,0c0-0.1,0-0.2,0-0.2c0-1.7,0-3.4,0-5.1c0-0.3,0-0.6,0.1-0.9
	c0.2-0.6,0.6-0.8,1.2-0.5c0.3,0.1,0.5,0.3,0.7,0.5c3.1,3.1,6.2,6.2,9.3,9.3c0.3,0.3,0.5,0.7,0.6,1.2C31.3,11.4,31.3,11.6,31.3,11.7z
	"/>
</svg>
